<svg data-v-725eb35b="" data-v-6e85a7f9="" width="1382" height="102" viewBox="0 0 1382 102" fill="none" xmlns="http://www.w3.org/2000/svg"><path data-v-725eb35b="" d="M166.467 20.5693C175.475 20.5693 184.483 24.6682 190.212 32.0504L184.483 37.7874C180.39 32.0504 174.66 28.6842 166.874 28.6842C152.952 28.6842 144.441 38.9349 144.441 52.1371C144.441 65.339 152.959 75.5896 167.289 75.5896C175.068 75.5896 180.797 72.2304 184.89 66.4864L190.619 72.2235C184.89 79.6056 175.882 83.6978 166.874 83.6978C148.859 83.6978 135.757 69.7559 135.757 52.2129C135.757 34.5871 148.859 20.5693 166.467 20.5693Z" fill="#F24C3F"></path> <path data-v-725eb35b="" d="M227.072 20.5693C244.515 20.5693 258.597 34.6701 258.597 52.1371C258.597 69.6039 244.515 83.7046 227.072 83.7046C209.63 83.7046 195.548 69.6039 195.548 52.1371C195.548 34.6701 209.63 20.5693 227.072 20.5693ZM227.072 75.4998C240.581 75.4998 249.92 65.6641 249.92 52.2129C249.92 38.6031 240.588 28.7602 227.072 28.7602C213.564 28.7602 204.149 38.6031 204.149 52.2129C204.142 65.6641 213.557 75.4998 227.072 75.4998Z" fill="#F24C3F"></path> <path data-v-725eb35b="" d="M268.433 22.2075H277.034V73.8617H302.008V82.0597H268.433V22.2075Z" fill="#F24C3F"></path> <path data-v-725eb35b="" d="M311.838 22.2075H320.439V73.8617H345.412V82.0597H311.838V22.2075Z" fill="#F24C3F"></path> <path data-v-725eb35b="" d="M355.241 22.2075H391.274V30.4053H363.841V47.6232H390.451V55.8212H363.841V73.8617H391.274V82.0597H355.241V22.2075Z" fill="#F24C3F"></path> <path data-v-725eb35b="" d="M429.354 20.5693C438.363 20.5693 447.364 24.6682 453.098 32.0504L447.371 37.7874C443.278 32.0504 437.548 28.6842 429.767 28.6842C415.847 28.6842 407.335 38.9349 407.335 52.1371C407.335 65.339 415.855 75.5896 430.184 75.5896C437.961 75.5896 443.691 72.2304 447.784 66.4864L453.515 72.2235C447.784 79.6056 438.776 83.6978 429.767 83.6978C411.758 83.6978 398.66 69.7559 398.66 52.2129C398.653 34.5871 411.754 20.5693 429.354 20.5693Z" fill="#F24C3F"></path> <path data-v-725eb35b="" d="M482.015 82.0597H473.34V30.4053H456.801V22.2075H498.561V30.4053H482.022V82.0597H482.015Z" fill="#F24C3F"></path> <path data-v-725eb35b="" d="M505.527 73.8617H506.922V30.4053H505.527V22.2075H516.991V30.4053H515.597V73.8617H516.991V82.0597H505.527V73.8617Z" fill="#F24C3F"></path> <path data-v-725eb35b="" d="M533.447 22.2075L548.921 70.0947L564.399 22.2075H573.074L553.423 82.0665H544.415L524.764 22.2075H533.447Z" fill="#F24C3F"></path> <path data-v-725eb35b="" d="M581.275 22.2075H617.305V30.4053H589.874V47.6232H616.487V55.8212H589.874V73.8617H617.305V82.0597H581.275V22.2075Z" fill="#F24C3F"></path> <path data-v-725eb35b="" d="M695.922 22.2075H708.202V82.0665H699.682V33.7715L682.813 68.9473H672.99L656.121 33.7715V82.0665H647.602V22.2075H659.881L677.898 60.4177L695.922 22.2075Z" fill="#F24C3F"></path> <path data-v-725eb35b="" d="M720.909 73.8617H722.304V30.4053H720.909V22.2075H732.374V30.4053H730.979V73.8617H732.374V82.0597H720.909V73.8617Z" fill="#F24C3F"></path> <path data-v-725eb35b="" d="M779.955 22.2075H788.471V82.0665H779.057L753.593 36.9718V82.0665H745.073V22.2075H754.491L779.955 66.4864V22.2075Z" fill="#F24C3F"></path> <path data-v-725eb35b="" d="M801.581 22.2075H815.088C832.692 22.2075 845.793 34.5042 845.793 52.1371C845.793 69.7699 832.692 82.0665 815.088 82.0665H801.581V22.2075ZM810.176 30.4053V73.8617H815.497C829.004 73.8617 837.198 65.6641 837.198 52.1299C837.198 38.6031 829.012 30.3984 815.497 30.3984H810.176V30.4053Z" fill="#F24C3F"></path> <path data-v-725eb35b="" d="M881.831 37.7877C881.831 32.8663 877.329 28.7674 871.594 28.7674C865.534 28.7674 861.771 32.4585 861.771 37.3799C861.771 41.8865 864.636 45.087 871.185 46.8081C873.395 47.3819 875.604 47.8726 877.738 48.3633C885.924 50.333 892.473 55.4135 892.473 65.6641C892.473 74.6848 885.101 83.5391 872.417 83.5391C861.282 83.5391 851.701 74.8504 851.535 65.6641L860.134 62.381C859.971 70.496 866.277 75.2513 872.417 75.2513C879.375 75.2513 883.881 71.4013 883.881 65.6573C883.881 59.5056 878.56 57.4597 874.467 56.6371C872.496 56.2293 869.965 55.5726 867.914 54.9159C860.134 52.5381 853.179 47.2091 853.179 36.9583C853.179 27.5301 861.282 20.7217 871.602 20.7217C882.244 20.7217 890.847 27.9379 890.847 37.7739H881.831V37.7877Z" fill="#F24C3F"></path> <path data-v-725eb35b="" d="M963.723 80.4214V82.0599H953.975L933.014 55.8214H931.377V82.0599H922.777V22.2008H944.065C953.896 22.2008 962.488 28.3526 962.488 39.0109C962.488 49.2616 953.316 55.8214 943.493 55.8214L963.723 80.4214ZM944.478 47.6234C949.394 47.6234 953.896 44.3403 953.896 39.0109C953.896 33.6818 949.394 30.3986 944.478 30.3986H931.377V47.6166H944.478V47.6234Z" fill="#F78F87"></path> <path data-v-725eb35b="" d="M988.296 22.2075H997.305L1017.78 82.0665H1009.18L1003.85 66.4864H981.664L976.422 82.0665H967.823L988.296 22.2075ZM984.453 58.282H1001.07L992.806 33.6816L984.453 58.282Z" fill="#F78F87"></path> <path data-v-725eb35b="" d="M1025.97 22.2075H1039.48C1057.08 22.2075 1070.18 34.5042 1070.18 52.1371C1070.18 69.7699 1057.08 82.0665 1039.48 82.0665H1025.97V22.2075ZM1034.57 30.4053V73.8617H1039.89C1053.4 73.8617 1061.6 65.6641 1061.6 52.1299C1061.6 38.6031 1053.41 30.3984 1039.89 30.3984H1034.57V30.4053Z" fill="#F78F87"></path> <path data-v-725eb35b="" d="M1079.61 73.8617H1081.01V30.4053H1079.61V22.2075H1091.08V30.4053H1089.68V73.8617H1091.08V82.0597H1079.61V73.8617Z" fill="#F78F87"></path> <path data-v-725eb35b="" d="M1132.02 20.5693C1149.47 20.5693 1163.55 34.6701 1163.55 52.1371C1163.55 69.6039 1149.47 83.7046 1132.02 83.7046C1114.58 83.7046 1100.5 69.6039 1100.5 52.1371C1100.5 34.6701 1114.58 20.5693 1132.02 20.5693ZM1132.02 75.4998C1145.53 75.4998 1154.87 65.6641 1154.87 52.2129C1154.87 38.6031 1145.54 28.7602 1132.02 28.7602C1118.52 28.7602 1109.09 38.6031 1109.09 52.2129C1109.09 65.6641 1118.52 75.4998 1132.02 75.4998Z" fill="#F78F87"></path> <path data-v-725eb35b="" d="M1173.39 22.2075H1181.98V73.8617H1206.96V82.0597H1173.39V22.2075Z" fill="#F78F87"></path> <path data-v-725eb35b="" d="M1240.13 20.5693C1257.57 20.5693 1271.65 34.6701 1271.65 52.1371C1271.65 69.6039 1257.57 83.7046 1240.13 83.7046C1222.68 83.7046 1208.6 69.6039 1208.6 52.1371C1208.6 34.6701 1222.68 20.5693 1240.13 20.5693ZM1240.13 75.4998C1253.63 75.4998 1262.97 65.6641 1262.97 52.2129C1262.97 38.6031 1253.64 28.7602 1240.13 28.7602C1226.62 28.7602 1217.2 38.6031 1217.2 52.2129C1217.2 65.6641 1226.62 75.4998 1240.13 75.4998Z" fill="#F78F87"></path> <path data-v-725eb35b="" d="M1327.27 37.8704C1323.34 32.2094 1316.95 28.7671 1308.92 28.7671C1295.42 28.7671 1286.9 38.61 1286.9 52.2201C1286.9 65.6709 1295.42 75.507 1308.92 75.507C1320.88 75.507 1329.97 67.7168 1330.79 56.6507H1300.32V48.4459H1331.44L1339.22 56.2357C1338.4 70.9931 1325.3 83.7046 1308.92 83.7046C1291.32 83.7046 1278.22 69.7627 1278.22 52.1371C1278.22 34.5111 1291.32 20.5693 1309.33 20.5693C1319.16 20.5693 1327.43 25 1333.16 31.9674L1327.27 37.8704Z" fill="#F78F87"></path> <path data-v-725eb35b="" d="M1347.41 22.2075L1359.69 43.6076L1371.9 22.2075H1381.4L1364.04 52.5449V82.0597H1355.35V52.5449L1337.99 22.2075H1347.41Z" fill="#F78F87"></path> <path data-v-725eb35b="" d="M52.6791 71.865C40.9938 71.865 31.4902 62.3457 31.4902 50.6467C31.4902 38.9481 40.9965 29.4288 52.6791 29.4288C64.3618 29.4288 73.8683 38.9481 73.8683 50.6467C73.8683 62.3457 64.3618 71.865 52.6791 71.865ZM52.6791 35.8056C44.5063 35.8056 37.8582 42.4627 37.8582 50.6467C37.8582 58.831 44.5063 65.4882 52.6791 65.4882C60.852 65.4882 67.5002 58.831 67.5002 50.6467C67.5002 42.4627 60.8493 35.8056 52.6791 35.8056Z" fill="#F24C3F"></path> <path data-v-725eb35b="" d="M69.2202 94.9697C71.8621 94.532 73.6494 92.0322 73.2125 89.3864C72.7751 86.741 70.2787 84.9513 67.6368 85.389C64.9949 85.827 63.2076 88.3269 63.645 90.9723C64.0819 93.618 66.5783 95.4078 69.2202 94.9697Z" fill="#F24C3F"></path> <path data-v-725eb35b="" d="M84.9599 82.7519C87.5219 81.9705 88.9658 79.2577 88.1855 76.6923C87.4051 74.1273 84.6957 72.6812 82.1342 73.4626C79.5726 74.244 78.1287 76.9568 78.909 79.5222C79.6893 82.0873 82.3983 83.5333 84.9599 82.7519Z" fill="#F24C3F"></path> <path data-v-725eb35b="" d="M93.1681 65.3515C95.7589 64.6732 97.3101 62.0202 96.6328 59.4256C95.9556 56.8314 93.3064 55.2781 90.7153 55.9561C88.1246 56.6344 86.5734 59.2873 87.2506 61.8815C87.9279 64.4761 90.577 66.0294 93.1681 65.3515Z" fill="#F24C3F"></path> <path data-v-725eb35b="" d="M96.6299 42.5025C97.3071 39.9079 95.7559 37.2551 93.1648 36.577C90.574 35.8988 87.9249 37.4522 87.2477 40.0466C86.5704 42.6412 88.1216 45.2942 90.7124 45.9721C93.3035 46.6504 95.9526 45.0967 96.6299 42.5025Z" fill="#F24C3F"></path> <path data-v-725eb35b="" d="M88.1855 25.2382C88.9658 22.673 87.5219 19.9601 84.9599 19.1787C82.3983 18.3973 79.6893 19.8433 78.909 22.4085C78.1287 24.9736 79.5726 27.6866 82.1342 28.468C84.6957 29.2494 87.4051 27.8034 88.1855 25.2382Z" fill="#F24C3F"></path> <path data-v-725eb35b="" d="M73.2096 12.5392C73.6469 9.89355 71.8596 7.39384 69.2177 6.95594C66.5758 6.51804 64.0794 8.30777 63.642 10.9534C63.2047 13.599 64.992 16.0987 67.6343 16.5366C70.2762 16.9745 72.7722 15.1848 73.2096 12.5392Z" fill="#F24C3F"></path> <path data-v-725eb35b="" d="M49.562 100.282C22.1883 100.282 0 78.0611 0 50.6525C0 23.2437 22.1883 1.02222 49.562 1.02222V16.0092C30.4554 16.0092 14.9691 31.5194 14.9691 50.6494C14.9691 69.7798 30.4581 85.2902 49.562 85.2902V100.282Z" fill="#F24C3F"></path> <path data-v-725eb35b="" d="M49.656 16.0031C53.793 16.0031 57.147 12.6446 57.147 8.50155C57.147 4.35856 53.793 1 49.656 1C45.5186 1 42.1646 4.35856 42.1646 8.50155C42.1646 12.6446 45.5186 16.0031 49.656 16.0031Z" fill="#F78F87"></path> <path data-v-725eb35b="" d="M49.656 100.279C53.793 100.279 57.147 96.9203 57.147 92.7774C57.147 88.6344 53.793 85.2759 49.656 85.2759C45.5186 85.2759 42.1646 88.6344 42.1646 92.7774C42.1646 96.9203 45.5186 100.279 49.656 100.279Z" fill="#F78F87"></path> <path data-v-725eb35b="" d="M52.6791 71.865C40.9938 71.865 31.4902 62.3457 31.4902 50.6467C31.4902 38.9481 40.9965 29.4288 52.6791 29.4288C64.3618 29.4288 73.8683 38.9481 73.8683 50.6467C73.8683 62.3457 64.3618 71.865 52.6791 71.865ZM52.6791 35.8056C44.5063 35.8056 37.8582 42.4627 37.8582 50.6467C37.8582 58.831 44.5063 65.4882 52.6791 65.4882C60.852 65.4882 67.5002 58.831 67.5002 50.6467C67.5002 42.4627 60.8493 35.8056 52.6791 35.8056Z" fill="#F24C3F"></path> <path data-v-725eb35b="" d="M69.2202 94.9697C71.8621 94.532 73.6494 92.0322 73.2125 89.3864C72.7751 86.741 70.2787 84.9513 67.6368 85.389C64.9949 85.827 63.2076 88.3269 63.645 90.9723C64.0819 93.618 66.5783 95.4078 69.2202 94.9697Z" fill="#F24C3F"></path> <path data-v-725eb35b="" d="M84.9599 82.7519C87.5219 81.9705 88.9658 79.2577 88.1855 76.6923C87.4051 74.1273 84.6957 72.6812 82.1342 73.4626C79.5726 74.244 78.1287 76.9568 78.909 79.5222C79.6893 82.0873 82.3983 83.5333 84.9599 82.7519Z" fill="#F24C3F"></path> <path data-v-725eb35b="" d="M93.1681 65.3515C95.7589 64.6732 97.3101 62.0202 96.6328 59.4256C95.9556 56.8314 93.3064 55.2781 90.7153 55.9561C88.1246 56.6344 86.5734 59.2873 87.2506 61.8815C87.9279 64.4761 90.577 66.0294 93.1681 65.3515Z" fill="#F24C3F"></path> <path data-v-725eb35b="" d="M96.6299 42.5025C97.3071 39.9079 95.7559 37.2551 93.1648 36.577C90.574 35.8988 87.9249 37.4522 87.2477 40.0466C86.5704 42.6412 88.1216 45.2942 90.7124 45.9721C93.3035 46.6504 95.9526 45.0967 96.6299 42.5025Z" fill="#F24C3F"></path> <path data-v-725eb35b="" d="M88.1855 25.2382C88.9658 22.673 87.5219 19.9601 84.9599 19.1787C82.3983 18.3973 79.6893 19.8433 78.909 22.4085C78.1287 24.9736 79.5726 27.6866 82.1342 28.468C84.6957 29.2494 87.4051 27.8034 88.1855 25.2382Z" fill="#F24C3F"></path> <path data-v-725eb35b="" d="M73.2096 12.5392C73.6469 9.89355 71.8596 7.39384 69.2177 6.95594C66.5758 6.51804 64.0794 8.30777 63.642 10.9534C63.2047 13.599 64.992 16.0987 67.6343 16.5366C70.2762 16.9745 72.7722 15.1848 73.2096 12.5392Z" fill="#F24C3F"></path> <path data-v-725eb35b="" d="M49.562 100.282C22.1883 100.282 0 78.0611 0 50.6525C0 23.2437 22.1883 1.02222 49.562 1.02222V16.0092C30.4554 16.0092 14.9691 31.5194 14.9691 50.6494C14.9691 69.7798 30.4581 85.2902 49.562 85.2902V100.282Z" fill="#F24C3F"></path> <path data-v-725eb35b="" d="M49.656 16.0031C53.793 16.0031 57.147 12.6446 57.147 8.50155C57.147 4.35856 53.793 1 49.656 1C45.5186 1 42.1646 4.35856 42.1646 8.50155C42.1646 12.6446 45.5186 16.0031 49.656 16.0031Z" fill="#F78F87"></path> <path data-v-725eb35b="" d="M49.656 100.279C53.793 100.279 57.147 96.9203 57.147 92.7774C57.147 88.6344 53.793 85.2759 49.656 85.2759C45.5186 85.2759 42.1646 88.6344 42.1646 92.7774C42.1646 96.9203 45.5186 100.279 49.656 100.279Z" fill="#F78F87"></path></svg>
