<svg id="Layer_1" data-name="Layer 1" xmlns="http://www.w3.org/2000/svg" width="1443.23" height="319.06" viewBox="0 0 1443.23 319.06"><defs><style>.cls-1{fill:#868786;}.cls-2{fill:#76ab26;}</style></defs><title>drivolino-name-logo</title><path class="cls-1" d="M1199.91,250.21c0,23.23,0,46.45.06,69.68,0,2.7-.54,3.68-3.49,3.63q-16.7-.28-33.4,0c-3,.06-3.45-1-3.45-3.67.08-41.3,0-82.6.11-123.9,0-5.89-.66-11.61-2.94-17-4.91-11.61-10.28-23-21.7-29.87-13.06-7.91-26.87-10.33-41.76-6-9.33,2.71-17.79,6.62-24.71,13.77a40.78,40.78,0,0,0-11,21.35,184.44,184.44,0,0,0-2.89,35.73c.12,35.2,0,70.39.11,105.59,0,3-.54,4.08-3.86,4-11.25-.24-22.5-.16-33.75,0-2.57,0-3.47-.47-3.47-3.29.1-43.22-.09-86.43.18-129.65.07-10.66,3.08-21,7.4-30.71,4.87-11,10.63-21.54,19.62-29.69,13.33-12.1,28.71-20.42,46.65-23.69a121.73,121.73,0,0,1,26.18-2.1c21.89.73,41.54,7,58.27,21.92,13,11.54,21.85,25.25,26,42a57.85,57.85,0,0,1,1.84,14Q1199.87,216.27,1199.91,250.21Z" transform="translate(-5.95 -8.02)"/><path class="cls-2" d="M549.79,324.65l-97.74-217.6c1.24-.85,2.33-.52,3.35-.52,12.69,0,25.37,0,38.06,0,2.19,0,3.33.31,4.4,2.8,5.49,12.85,11.49,25.49,17.19,38.26,8.6,19.24,17.07,38.55,25.66,57.8,2.83,6.37,5.85,12.65,9.09,19.63,2.35-5.16,4.46-9.73,6.51-14.34,3.49-7.88,6.88-15.8,10.41-23.66,7.74-17.22,15.6-34.38,23.32-51.61,7.81-17.43,15.48-34.93,23.27-52.37,4.65-10.43,9.45-20.8,14.13-31.22,6-13.38,12-26.77,17.91-40.22,1.22-2.8,2.81-3.59,5.84-3.54,13,.21,26.08.09,39.61.09-2,4.62-3.88,8.94-5.8,13.24Q672.73,49,660.42,76.6q-13,29.21-26,58.42-11.5,25.86-23,51.73l-23.58,53q-13,29.21-26,58.41c-3.55,8-7,16-10.56,24C550.93,322.86,550.46,323.51,549.79,324.65Z" transform="translate(-5.95 -8.02)"/><path class="cls-1" d="M884.58,165.84q0-76.83-.07-153.66c0-3.18.67-4.24,4-4.16q15.8.36,31.59,0c3.6-.08,4.76.69,4.75,4.58q-.2,115.61-.1,231.2c0,25.37,0,50.74.06,76.1,0,2.74-.59,3.67-3.51,3.62-10.77-.19-21.54-.22-32.31,0-3.46.08-4.58-.6-4.57-4.39C884.63,268,884.58,216.93,884.58,165.84Z" transform="translate(-5.95 -8.02)"/><path class="cls-2" d="M359.5,142c-16.63-3.18-31.82.35-45.56,9.29-10.31,6.71-15.88,16.84-17.71,29.1a221.21,221.21,0,0,0-2.2,24.66c-1.4,38.13-.21,76.26-.53,114.39,0,3.25-.79,4.14-4.07,4.08-11-.22-22-.15-33,0-2.35,0-3.28-.34-3.28-3,.09-44.29-.08-88.57.19-132.85.05-9.37,2.8-18.5,6.67-27,4.9-10.81,10.58-21.19,19.32-29.57a93.68,93.68,0,0,1,43.46-23.78c10.89-2.65,22-3.09,33.1-2.89,2.6,0,3.74.89,3.7,3.75C359.41,119.33,359.5,130.58,359.5,142Z" transform="translate(-5.95 -8.02)"/><path class="cls-1" d="M990.88,215.73c0,34.81,0,69.63.09,104.45,0,3.38-1,4.1-4.17,4.05-11.72-.18-23.45-.14-35.17,0-2.54,0-3.18-.7-3.18-3.2q.1-105.72,0-211.42c0-2.58.79-3.16,3.24-3.14,11.84.12,23.69.16,35.53,0,3,0,3.74.78,3.73,3.76Q990.8,163,990.88,215.73Z" transform="translate(-5.95 -8.02)"/><path class="cls-2" d="M385.36,215c0-34.94,0-69.87-.08-104.81,0-3,.69-3.76,3.7-3.71,11.6.19,23.21.13,34.81,0,2.32,0,3.29.29,3.29,3q-.12,105.89,0,211.77c0,2.33-.6,3-3,3-11.84-.13-23.69-.16-35.53,0-2.78,0-3.29-.79-3.28-3.39Q385.42,267.91,385.36,215Z" transform="translate(-5.95 -8.02)"/><path class="cls-2" d="M429.89,67.2c.76,13-10.61,23.69-23.17,23.4-14.88-.34-23.89-10.12-24.07-23.95-.17-12.59,10.2-24.14,25.3-23.48C418.78,43.65,431.09,53.72,429.89,67.2Z" transform="translate(-5.95 -8.02)"/><path class="cls-1" d="M946.35,66.6c-1.41-12.48,11.63-24.22,24.2-23.48,13.31.78,23.28,11.06,23,23.93-.35,13.75-9.1,23.22-24,23.53C957.23,90.83,945.42,80.94,946.35,66.6Z" transform="translate(-5.95 -8.02)"/><path class="cls-2" d="M230.2,142.54c0-43.44,0-86.89.1-130.34,0-3.59-1-4.26-4.34-4.18-9.57.24-19.15.21-28.72,0-3-.06-3.76.63-3.75,3.67q.18,61.05.08,122.08v5c-3.06-3.18-5.22-5.76-7.72-8-6.75-6-13.83-11.58-21.92-15.73a98.4,98.4,0,0,0-35.23-10.82,128.22,128.22,0,0,0-31.63.24,96.48,96.48,0,0,0-34.43,12,115.45,115.45,0,0,0-38.4,36.38,107.75,107.75,0,0,0-18,53.84,125.81,125.81,0,0,0,2,31.49c4,21.13,14.11,39,28.67,54.42A114.11,114.11,0,0,0,60.5,311.54c16.39,10,34.24,14.77,53.28,15.46a125.13,125.13,0,0,0,26.46-2,102.83,102.83,0,0,0,35.42-13.4,118.8,118.8,0,0,0,26.14-21.8A108.31,108.31,0,0,0,216,270.55c10-17.25,14.29-36,14.26-55.84Q230.15,178.64,230.2,142.54Zm-36.57,75.64c-1.33,38-34.61,72.95-75.34,72.22-40.09,1.41-76.67-34.88-75.66-76.94.9-37.53,35-75.76,80-73.33C157.54,142,195.17,174.21,193.63,218.18Z" transform="translate(-5.95 -8.02)"/><path class="cls-1" d="M859.52,194.3C856.41,173.07,847,155,832.8,139.22a107.46,107.46,0,0,0-32.26-24c-14.67-7.32-30.2-11.35-46.74-10.87a145.57,145.57,0,0,0-36.71,5c-19.44,5.41-36.14,15-49.8,30.12a121.11,121.11,0,0,0-21.79,32.86,113.73,113.73,0,0,0-8.13,63.42c2.41,14.36,7.1,27.73,15,40a127.72,127.72,0,0,0,17.79,22.44c5.29,5.15,11.63,9.15,17.9,13.17,16,10.28,33.62,15.15,52.49,15.68a108.38,108.38,0,0,0,15.68-.51c8.32-1,16.62-1.77,24.78-3.71,15.14-3.61,29.06-9.8,40.66-20.26,9.53-8.58,18.09-18,24.6-29.32,9.27-16.05,14.71-33.1,15.26-51.62A156.76,156.76,0,0,0,859.52,194.3Zm-54.65,69.83c-12.06,14.71-27.43,24.1-46.3,26.86a68.69,68.69,0,0,1-51.31-12.57c-15.94-11.48-25.59-27.64-28.59-47-2.67-17.28-1.7-34.75,7.13-50.37,10.11-17.88,24-31.65,45-36.74,6.28-1.52,12.62-2.82,18.84-2.46,17.34,1,33.38,5.5,47,17.56,13,11.56,20,25.86,23.23,42.5.31,1.61,0,3.34,0,5.88.21,3.76.64,8.38.7,13C820.82,237.24,815.16,251.58,804.87,264.13Z" transform="translate(-5.95 -8.02)"/><path class="cls-1" d="M1447.78,199.22a102.26,102.26,0,0,0-12.52-39.4c-10.51-18.44-24.91-32.9-43.86-42.57a107,107,0,0,0-54.16-12.12,94.43,94.43,0,0,0-23.48,2c-23.12,4.58-43,14.71-59,32.4-9,9.91-16.5,20.61-21.76,32.9a111.12,111.12,0,0,0-9.32,42.17,132.86,132.86,0,0,0,.51,15.68,99.9,99.9,0,0,0,6.26,26.72c6.73,17,16.81,32,30.76,43.93a108.51,108.51,0,0,0,35,20.32c15.16,5.3,30.8,6.67,46.83,5.16,8.71-.82,17.36-1.69,25.86-3.73,15.12-3.64,29-9.88,40.61-20.4,9.41-8.55,17.88-17.91,24.36-29.09,9.42-16.27,14.79-33.57,15.31-52.35A153.67,153.67,0,0,0,1447.78,199.22Zm-39.65,26.43c-.87,14.3-6.31,27-15.3,38.06a76.63,76.63,0,0,1-24.73,20.36,71.05,71.05,0,0,1-24.24,7.08,68.15,68.15,0,0,1-41-7.93,67.18,67.18,0,0,1-28.45-28.34c-6-11.42-9.39-23.38-9.15-39.5.63-9.68,1.14-22.64,7.92-34.13,10.53-17.84,24.18-31.76,45.33-36.88,10.81-2.61,21.21-2.45,32.12-.78,15.37,2.35,27.75,9.66,38.32,20.33A63.58,63.58,0,0,1,1406.7,199,120.07,120.07,0,0,1,1408.13,225.65Z" transform="translate(-5.95 -8.02)"/></svg>