<svg width="110" height="25" viewBox="0 0 110 25" fill="none" xmlns="http://www.w3.org/2000/svg">
<path fill-rule="evenodd" clip-rule="evenodd" d="M9.58521 2.55945C3.55018 5.97204 -0.112838 12.2668 0.00265252 19.0267H7.23413V13.7138L10.393 15.3332V19.0267H11.0267V11.875H13.108V19.0267H13.5206V15.3994H15.0525V19.0267H15.5856V8.9933L19.1618 2.88867V19.0267H19.7268V5.68799L21.2587 5.01367V7.30738L23.0019 8.45678V19.0267H23.6622V10.9707H25.7435V19.0267H26.2511V10.884L28.9874 9.26465V19.0267H38.7068C38.8223 12.2668 35.1593 5.97204 29.1242 2.55945C23.0892 -0.853149 15.6202 -0.853149 9.58521 2.55945Z" fill="#081D26"/>
<path fill-rule="evenodd" clip-rule="evenodd" d="M50.6289 3.9375H45.9265V19.6837H48.7914V14.243H50.83C54.3528 14.243 56.424 12.7577 56.424 9.1091C56.424 4.97074 54.2386 3.9375 50.6289 3.9375ZM50.6991 11.7676H48.791V6.41301H50.5414C52.7268 6.41301 53.5205 7.04264 53.5205 9.02302C53.5205 10.9119 52.7486 11.7676 50.6991 11.7676Z" fill="#081D26"/>
<path d="M58.3921 2.625H61.0165V19.6834H58.3921V2.625Z" fill="#081D26"/>
<path fill-rule="evenodd" clip-rule="evenodd" d="M63.6411 11.9406V15.0098C63.6411 17.8849 65.1993 19.6845 68.5618 19.6845C71.9243 19.6845 73.4825 17.9269 73.4825 15.0098V11.9406C73.4825 9.01831 71.9079 7.21875 68.5618 7.21875C65.2157 7.21875 63.6411 9.02356 63.6411 11.9406ZM66.3751 14.8573V12.0504H66.3806C66.3806 10.3401 66.9219 9.54785 68.5621 9.54785C70.2023 9.54785 70.7491 10.3401 70.7491 12.0504V14.8573C70.7491 16.5467 70.2023 17.3599 68.5621 17.3599C66.9219 17.3599 66.3751 16.5467 66.3751 14.8573Z" fill="#081D26"/>
<path d="M77.5274 16.6396V10.1556H75.4504V8.02274L77.5706 7.8841V5.53794L80.2356 5.25V7.9161H83.5049V10.1716H80.2356V16.5969C80.2356 17.5567 80.5971 17.9566 81.5897 17.9566C82.208 17.9436 82.8216 17.8467 83.4132 17.6687L83.9796 19.6949C83.153 20.1036 82.2442 20.3241 81.32 20.3401C78.6118 20.3401 77.5274 19.0284 77.5274 16.6396Z" fill="#081D26"/>
<path fill-rule="evenodd" clip-rule="evenodd" d="M88.5727 3.28125H85.2922V6.26688H88.5727V3.28125ZM88.4402 7.76562H85.4417V20.3401H88.4402V7.76562Z" fill="#081D26"/>
<path d="M95.3537 7.2V7.89439H98.5074V10.1714H95.3482V20.3396H92.5915V10.1714H90.5405V8.07741L92.5915 7.89439V7.3561C92.5915 4.94457 94.0195 3.28125 96.6714 3.28125C97.5024 3.28029 98.3226 3.46439 99.0697 3.81954L98.4467 5.84889C98.0081 5.70284 97.5483 5.6265 97.0849 5.62281C95.8113 5.60128 95.3537 6.17725 95.3537 7.2Z" fill="#081D26"/>
<path d="M104.313 24.2771H101.751L103.215 19.7113H102.72L99.0701 7.21875H101.869L104.19 16.1883H104.276L106.731 7.21875H109.568L104.313 24.2771Z" fill="#081D26"/>
</svg>
