<svg xmlns="http://www.w3.org/2000/svg" viewBox="0 0 278 37" width="278" height="37"><path d="M13.782 23.992a56.694 56.694 0 0 0-6.754-2.841c-2.4-.961-3.573-2.528-3.206-4.3.439-2.114 2.78-3.378 4.792-3.378h.318a7.641 7.641 0 0 1 5.678 2.533l.175.192.713-.719-.171-.172a9.342 9.342 0 0 0-6.62-2.776h-.244a8.654 8.654 0 0 0-3.615.8v-.006l-.081.041a5.76 5.76 0 0 0-2.587 2.54 5.688 5.688 0 0 0-.349 4.371 5.7 5.7 0 0 0 2.846 3.343c.83.4 1.8.761 2.836 1.141l.078.03c2.243.822 4.786 1.752 6.26 3.32a3.95 3.95 0 0 1 .531 4.378c-.919 1.924-3.072 3.003-5.779 2.856a9.681 9.681 0 0 1-6.74-3.022l-.16-.165-.84.673.193.192a11.492 11.492 0 0 0 8.079 3.353h.261a9.96 9.96 0 0 0 4.567-1.113 6.707 6.707 0 0 0 3.148-5.777 6.133 6.133 0 0 0-3.329-5.494z"></path><path d="m30.989 12.256-.092.007a9.9 9.9 0 0 0-7.116 2.9 12.649 12.649 0 0 0-3.36 9.008 12.593 12.593 0 0 0 3.538 9.081 10.765 10.765 0 0 0 7.557 3h.129a10.984 10.984 0 0 0 8.423-3.921l.16-.19-.883-.725-.155.193a8.578 8.578 0 0 1-6.585 3.194c-4.24 0-8.824-3.348-8.87-10.7a9.572 9.572 0 0 1 .218-2.574h16.7v-.245a8.445 8.445 0 0 0-2.427-6.161 10.218 10.218 0 0 0-7.237-2.867zm7.728 5.669c.447.95.548 1.593.312 1.962-.2.317-.684.477-1.436.477H24.217c.9-3.141 3.437-6.749 7.718-6.749h.042a7.447 7.447 0 0 1 6.74 4.31z"></path><path d="M55.996 12.215c-.107 0-.213-.006-.319-.006a8.93 8.93 0 0 0-6.805 3.177v-2.454h-4.848v.822l1.8.719v21.235h3.052V18.359c0-2.958 3.537-5.02 6.712-5.02a5.5 5.5 0 0 1 3.99 1.517 6.054 6.054 0 0 1 1.509 4.538v16.314h3.1V19.394c-.007-4.712-4.124-7.178-8.191-7.179Z"></path><path d="m84.016 2.049 1.841.765v12.265a10.094 10.094 0 0 0-6.669-2.591 10.761 10.761 0 0 0-5.908 1.817l-.11.076c-2.946 2.012-4.71 5.782-4.722 10.087-.011 4.234 1.7 7.951 4.587 9.943a9.722 9.722 0 0 0 5.5 1.711h.2c.128 0 .256.01.383.01a8.891 8.891 0 0 0 7.129-3.528l1.592 3.1h1.072V1.279h-4.895ZM79.55 34.862h-.023a6.491 6.491 0 0 1-4.476-1.783l-.055-.051c-3.82-3.748-4.072-12.555-.463-16.9a6.457 6.457 0 0 1 5.024-2.385h.094a7.7 7.7 0 0 1 6.208 3.159v14.436a7.678 7.678 0 0 1-6.309 3.524z"></path><path d="M120.943 12.215a8.776 8.776 0 0 0-7.806 4.145 8 8 0 0 0-7.457-4.145 8.961 8.961 0 0 0-7.079 3.134V12.93h-4.895v.819l1.794.722v21.237h3.1v-17.35c0-2.958 3.537-5.02 6.712-5.02a5.5 5.5 0 0 1 3.992 1.517 6.057 6.057 0 0 1 1.509 4.538v16.315h3.052V19.384a6.406 6.406 0 0 0-.089-.976c.086-2.936 3.653-4.982 6.8-4.982a5.479 5.479 0 0 1 3.977 1.5 5.95 5.95 0 0 1 1.478 4.462v.253h.049v16.067h3.1V19.147h-.049c-.153-4.551-4.22-6.931-8.188-6.932z"></path><path d="M143.907 12.349a9.863 9.863 0 0 0-8.024 3.757 13.238 13.238 0 0 0-2.663 8.215 13.238 13.238 0 0 0 2.662 8.215 9.863 9.863 0 0 0 8.024 3.757 9.9 9.9 0 0 0 8.046-3.757 13.206 13.206 0 0 0 2.672-8.215 13.206 13.206 0 0 0-2.672-8.215 9.9 9.9 0 0 0-8.045-3.757zm0 22.821c-3.676 0-7.632-3.4-7.632-10.871a14.276 14.276 0 0 1 1.932-7.512 6.569 6.569 0 0 1 5.7-3.36c3.676 0 7.632 3.4 7.632 10.872a14.272 14.272 0 0 1-1.932 7.511 6.567 6.567 0 0 1-5.7 3.36z"></path><path d="M185.524 12.215a8.762 8.762 0 0 0-7.807 4.145 8 8 0 0 0-7.456-4.145 8.989 8.989 0 0 0-7.079 3.134V12.93h-4.893v.819l1.795.722v21.237h3.1v-17.35c0-2.958 3.537-5.02 6.71-5.02a5.5 5.5 0 0 1 3.992 1.517 6.057 6.057 0 0 1 1.509 4.538v16.315h3.052V19.384a6.371 6.371 0 0 0-.087-.976c.085-2.936 3.653-4.982 6.8-4.982a5.476 5.476 0 0 1 3.975 1.5 5.95 5.95 0 0 1 1.478 4.462v.253h.049v16.067h3.1V19.147h-.06c-.141-4.551-4.207-6.931-8.178-6.932z"></path><path d="M208.402 12.256a9.912 9.912 0 0 0-7.212 2.9 12.636 12.636 0 0 0-3.36 9.007 12.579 12.579 0 0 0 3.539 9.078 10.791 10.791 0 0 0 7.572 3h.119a10.983 10.983 0 0 0 8.419-3.916l.161-.19-.878-.723-.155.2a8.588 8.588 0 0 1-6.585 3.192c-4.24 0-8.824-3.348-8.87-10.7a9.523 9.523 0 0 1 .219-2.574h16.7v-.245a8.445 8.445 0 0 0-2.427-6.161 10.218 10.218 0 0 0-7.242-2.868zm8.035 7.627c-.2.315-.682.474-1.435.474l-13.364.007c.9-3.143 3.438-6.751 7.714-6.751h.036a7.448 7.448 0 0 1 6.739 4.3c.444.956.547 1.6.31 1.97z"></path><path d="M232.792 12.215h-.312a8.941 8.941 0 0 0-6.813 3.176v-2.459h-4.848v.822l1.8.719v21.235h3.052V18.359c0-2.958 3.537-5.02 6.712-5.02a5.5 5.5 0 0 1 3.99 1.517 6.054 6.054 0 0 1 1.509 4.538v16.314h3.1V19.393c-.007-4.712-4.123-7.177-8.19-7.178z"></path><path d="M258.721 33.815a7.449 7.449 0 0 1-3.866 1.31h-.124a3.156 3.156 0 0 1-1.977-.69 4.572 4.572 0 0 1-1.234-3.836v-16.5h6.016v-1.167h-6.016V1.279h-4.89v.77l1.794.765v10.123h-3.187v1.167h3.188V29.88c0 4.07 2.136 6.406 5.867 6.406a10.061 10.061 0 0 0 5.063-1.612l.227-.149-.673-.839z"></path><path d="M274.102 23.992a56.677 56.677 0 0 0-6.752-2.841c-2.4-.961-3.573-2.528-3.207-4.3.439-2.114 2.782-3.378 4.793-3.378h.317a7.644 7.644 0 0 1 5.679 2.533l.174.192.713-.719-.171-.172a9.342 9.342 0 0 0-6.62-2.776h-.241a8.656 8.656 0 0 0-3.616.8v-.006l-.081.041a5.761 5.761 0 0 0-2.587 2.538 5.691 5.691 0 0 0-.351 4.373A5.7 5.7 0 0 0 265 23.62c.87.42 1.91.8 2.928 1.173 2.24.823 4.779 1.756 6.246 3.318a3.949 3.949 0 0 1 .531 4.376c-.913 1.93-3.068 3.013-5.773 2.863a9.688 9.688 0 0 1-6.744-3.029l-.156-.165-.839.674.195.193a11.492 11.492 0 0 0 8.088 3.36h.251a9.965 9.965 0 0 0 4.571-1.114 6.706 6.706 0 0 0 3.146-5.777 6.131 6.131 0 0 0-3.342-5.5z"></path></svg>
