<svg xmlns="http://www.w3.org/2000/svg" viewBox="0 0 219 190" class="HeaderLogo" width="61" height="52"><path d="M30.045 74.955v35.797c0 10.411-5.22 15.915-15.094 15.915C5.076 126.667 0 120.913 0 110.465V80.061h10.381v29.972c0 5.436 1.606 6.467 4.57 6.467 2.523 0 4.857-.748 4.857-6.179V75.528c0-1.98-.235-3.363-.696-4.106l-.038-.061-.033-.063c-.904-1.72-2.998-3.089-6.167-5.162l-1.29-.845C5.286 61.215.445 57.38.286 48.449V15.34C.285 5.59 5.734 0 15.235 0 24.739 0 29.59 5.422 29.76 14.874v28.7H19.521v-27.66c0-5.287-1.322-6.18-4.285-6.18-3.806 0-4.57 2.31-4.57 6.037v32.067c0 4.494 2.133 6.1 8.298 10.05 1.833 1.043 3.296 2.154 4.588 3.136.384.29.753.572 1.116.837l.082.063c3.76 3.066 5.296 6.842 5.296 13.03h-.001Zm49.107-57.318v32.836c0 11.894-5.606 17.924-16.66 17.924h-3.146v57.267H48.965V.86h13.383c11.622 0 16.804 5.174 16.804 16.776v.001ZM59.346 58.375h2.433c5.134 0 7.135-2.256 7.135-8.045V17.924c0-6.365-1.575-7.327-6.993-7.327h-2.575v47.779-.001Zm68.301-41.886v93.547c0 10.569-5.813 16.632-15.948 16.632-10.135 0-15.948-6.218-15.948-16.632V16.488C95.75 6.164 101.766 0 111.84 0s15.806 6.01 15.806 16.488v.002Zm-21.373 92.829c0 6.315 2.676 7.185 5.568 7.185 2.892 0 5.283-.87 5.283-7.185V16.776c0-6.311-3.096-7.04-5.425-7.04-2.329 0-5.425.73-5.425 7.04v92.541l-.001.001Zm97.907 6.18V64.64h13.394V54.474h-13.394V11.026h14.392V.86h-24.63v124.803H219v-10.166h-14.819v.001ZM177.815.86h-10.096l-11.801 53.203V.86h-10.096v124.803h10.096V63.325l11.801 62.338h10.096L165.068 58.53 177.815.86Z" fill="#001E3C"></path><path d="M219 179.834H0V190h219v-10.166Z" fill="#E15A3C"></path></svg>
